# xmcd
#
# Track frame offsets: 
#        150
#        25012
#        54807
#        60925
#        86117
#        100732
#        123360
#        140727
#        158567
#        181477
#        199675
#        238615
#
# Disc length: 3308 seconds
#
# Revision: 2
# Processed by: cddbd v1.5.2PL0 Copyright (c) Steve Scherf et al.
# Submitted via: ExactAudioCopy v0.95a5
#
DISCID=930cea0c
DTITLE=Genesis - Duke
DYEAR=1980
DGENRE=Progressive Rock
TTITLE0=Behind The Lines
TTITLE1=Duchess
TTITLE2=Guide Vocal
TTITLE3=Man Of Our Times
TTITLE4=Misunderstanding
TTITLE5=Heathaze
TTITLE6=Turn It On Again
TTITLE7=Alone Tonight
TTITLE8=Cul-De-Sac
TTITLE9=Please Don't Ask
TTITLE10=Duke's Travels
TTITLE11=Duke's End
EXTD=YEAR: 1980
EXTT0=
EXTT1=
EXTT2=
EXTT3=
EXTT4=
EXTT5=
EXTT6=
EXTT7=
EXTT8=
EXTT9=
EXTT10=
EXTT11=
PLAYORDER=
